<svg width="6" height="16" viewBox="0 0 6 16" fill="none" xmlns="http://www.w3.org/2000/svg">
<path d="M5.35246 6.87508H5.32445V4.81907C5.32445 4.54077 5.12996 4.30834 4.86961 4.2491V2.10246C4.86961 1.89446 4.75919 1.70211 4.57957 1.59724L1.98027 0.0796779C1.79932 -0.0259592 1.57574 -0.0267615 1.39402 0.0775384C1.21233 0.181872 1.10027 0.375361 1.10027 0.584897V4.25689C0.855301 4.32672 0.675718 4.5517 0.675718 4.81907V6.87508H0.647637C0.324542 6.87508 0.0626221 7.137 0.0626221 7.4601V15.4149C0.0626221 15.738 0.324542 15.9999 0.647637 15.9999H5.35243C5.67553 15.9999 5.93745 15.738 5.93745 15.4149V7.4601C5.93748 7.137 5.67556 6.87508 5.35246 6.87508ZM3.69958 2.43836V4.23406H2.2703V1.60389L3.69958 2.43836V2.43836ZM1.84578 5.40409H4.15442V6.87508H1.84578V5.40409ZM4.76745 14.8299H1.23269V8.04511H4.76745V14.8299Z" fill="white"/>
</svg>
