<svg width="16" height="12" viewBox="0 0 16 12" fill="none" xmlns="http://www.w3.org/2000/svg">
<path d="M15.6113 3.53933L8.1852 1.00778C8.06503 0.966808 7.93497 0.966808 7.8148 1.00778L0.388683 3.53933C0.156285 3.61862 -8.82594e-05 3.83707 3.73735e-08 4.08271C8.83342e-05 4.32844 0.156462 4.5468 0.389124 4.62591L3.2759 5.60786V8.59962C3.2759 8.74266 3.32923 8.88049 3.42556 8.98618C4.60486 10.2803 6.28488 11.0226 8.03466 11.0226C9.76722 11.0226 11.377 10.3287 12.5672 9.06883C12.6679 8.96226 12.7239 8.82125 12.7239 8.67467V5.61228L13.9158 5.20505V6.64809C13.7815 6.75316 13.695 6.91624 13.695 7.09981V8.49976C13.695 8.81674 13.952 9.07369 14.2689 9.07369C14.5859 9.07369 14.8429 8.81674 14.8429 8.49976V7.09981C14.8429 6.91615 14.7563 6.75307 14.6221 6.64809V4.96374L15.6115 4.62574C15.8438 4.54636 15.9999 4.32791 15.9998 4.08245C15.9999 3.83689 15.8437 3.61854 15.6113 3.53933ZM11.5762 8.43954C10.6226 9.36674 9.37368 9.87463 8.03474 9.87463C6.67957 9.87463 5.37577 9.32895 4.42376 8.3704V5.99831L7.83175 7.15747C7.8917 7.17787 7.95413 7.18802 8.01656 7.18802C8.07925 7.18802 8.14203 7.17778 8.20216 7.1572L11.5762 6.0044V8.43954H11.5762ZM8.01611 6.00776L2.35435 4.08192L7.99996 2.15731L13.6491 4.08315L8.01611 6.00776Z" fill="white"/>
</svg>
